<?xml version="1.0" encoding="UTF-8"?>
<svg width="32" height="32" viewBox="0 0 32 32" xmlns="http://www.w3.org/2000/svg">
  <!-- White background -->
  <rect width="32" height="32" fill="#FFFFFF"/>
  
  <!-- NERV Logo - Red half maple leaf shape -->
  <path d="
    M5,4 
    C5,4 5,10 8,14 
    C11,18 14,20 15,23
    C15,25 12,27 10,28
    L8,26
    L10,25
    L14,20
    L12,17
    L9,14
    L7,10
    L5,4 Z" fill="#E50000"/>
    
  <!-- NERV Text -->
  <path d="M4,19 L6,19 L8,24 L10,19 L12,19 L9,28 L7,28 Z" fill="#E50000"/> <!-- N -->
  <path d="M13,19 L19,19 L19,21 L15,21 L15,22 L18,22 L18,24 L15,24 L15,25 L19,25 L19,27 L13,27 Z" fill="#E50000"/> <!-- E -->
  <path d="M20,19 L22,19 L24,23 L26,19 L28,19 L25,27 L23,27 Z" fill="#E50000"/> <!-- R and V combined -->
</svg> 